<svg xmlns="http://www.w3.org/2000/svg" viewBox="0 0 268.8 185.1"><defs><style>.cls-1{fill:#5fc7ce;}.cls-2{fill:#00a5a7;}</style></defs><g id="Layer_2" data-name="Layer 2"><g id="Layer_1-2" data-name="Layer 1"><path class="cls-1" d="M51,35.5c28.4,0,47.8,20.8,47.8,50.6,0,3.8-.6,8-1,12H23.4c4,12.4,15.2,20,30,20,9.6,0,18.8-3.4,24.8-10l15,15c-9.6,10.6-23.6,16.4-40,16.4C23,139.5,0,116.9,0,87.5S22,35.5,51,35.5ZM23,79.7H76.6c-2-14.2-12.6-23-26-23C36.8,56.7,25,65.9,23,79.7Z"/><path class="cls-2" d="M106,140V35.48h23.6V48.9c6.8-8,17.2-13.4,30-13.4V57.9a11.4,11.4,0,0,0-2.6-.2c-15,0-27.4,10.6-27.4,25.8V140Z"/><path class="cls-1" d="M164.8,35.48h23.6V50.3a40.78,40.78,0,0,1,30.8-14.8c28.8,0,49.6,23.2,49.6,52,0,28.6-20.8,52-49.6,52a41.29,41.29,0,0,1-30.8-14.6v60.2H164.8Zm23.6,52a28.4,28.4,0,1,0,28.4-28.4A28.51,28.51,0,0,0,188.4,87.5Z"/><rect class="cls-2" x="106" width="23.5" height="23.5" rx="11.75"/></g></g></svg>